PathFileType	4	(X/Y/Z)	stereocamera_test1.trc
DataRate	CameraRate	NumFrames	NumMarkers	Units	OrigDataRate	OrigDataStartFrame	OrigNumFrames
28.773259820813234	28.773259820813234	19	15	mm	28.773259820813234	42	335
Frame#	Time	JOINT_NECK			JOINT_RIGHT_CLAVICLE			JOINT_LEFT_CLAVICLE			JOINT_RIGHT_SHOULDER			JOINT_LEFT_SHOULDER			JOINT_RIGHT_ELBOW			JOINT_LEFT_ELBOW			JOINT_LEFT_WRIST			JOINT_RIGHT_WRIST			JOINT_SPINE_3			JOINT_SPINE_2			JOINT_SPINE_1			JOINT_PELVIS			JOINT_RIGHT_HIP			JOINT_LEFT_HIP
		X1	Y1	Z1	X2	Y2	Z2	X3	Y3	Z3	X4	Y4	Z4	X5	Y5	Z5	X6	Y6	Z6	X7	Y7	Z7	X8	Y8	Z8	X9	Y9	Z9	X10	Y10	Z10	X11	Y11	Z11	X12	Y12	Z12	X13	Y13	Z13	X14	Y14	Z14	X15	Y15	Z15

42	1749651072.518000	148.889510	8.303776	867.019240	85.304400	4.408300	936.847000	222.954230	14.682025	879.574800	9.927968	-2.024844	960.241400	278.112200	17.806366	834.452870	-34.018967	-239.892720	978.574000	339.280040	-217.152330	800.177300	nan	nan	nan	-72.150590	-385.057030	987.896560	143.530830	-79.248660	847.122100	138.186650	-161.964640	815.575400	136.834220	-244.607330	805.880370	133.649170	-320.622150	784.834500	50.887660	-333.666440	819.811760	nan	nan	nan
43	1749651072.552000	149.179680	8.376479	867.383100	85.342520	5.113512	937.370300	222.912340	14.619917	879.476130	10.095109	-1.780003	960.371730	278.187100	17.693550	833.648000	-33.517600	-237.912180	977.818370	339.954670	-223.132790	798.912050	nan	nan	nan	-69.903620	-384.002400	989.251140	143.524570	-79.299980	847.018800	138.208570	-162.009580	815.575100	136.458520	-244.668040	805.838500	132.959500	-320.856800	785.281500	50.846310	-334.320800	819.646400	nan	nan	nan
44	1749651072.585000	149.448280	8.549079	867.923140	85.361550	5.628794	937.775400	222.861290	14.651567	879.362400	9.632424	-1.085982	960.808000	278.887800	17.393768	833.592950	-33.628160	-237.897140	977.936000	340.512800	-227.802660	797.419000	nan	nan	nan	-70.483240	-385.121350	988.783800	143.517790	-79.271830	846.998500	138.205560	-161.963020	815.508200	136.294170	-244.642380	805.809300	132.651220	-320.922430	785.449300	50.615825	-335.082740	819.541930	nan	nan	nan
45	1749651072.618000	149.311990	8.548662	868.402100	85.378975	5.856007	937.970160	222.833540	14.614776	879.276600	8.893169	-0.936046	961.375700	278.926800	17.230421	833.100800	-33.608533	-237.540680	977.600630	340.156260	-226.146880	797.806860	nan	nan	nan	-69.217790	-384.119960	991.719540	143.508370	-79.302210	846.939700	138.172760	-161.955130	815.294740	136.250180	-244.666960	805.750500	132.566680	-320.981440	785.425000	50.467044	-335.622900	819.520100	nan	nan	nan
46	1749651072.652000	149.377850	8.420095	868.632300	85.404016	5.958423	938.122000	222.820390	14.599919	879.192650	8.256476	-1.393989	961.493900	279.590070	17.373100	833.548670	-33.200580	-239.510830	977.813360	340.334530	-228.312550	797.356500	nan	nan	nan	-70.870906	-385.889050	992.348400	143.505570	-79.309130	846.910600	138.137330	-161.927910	815.115800	138.580460	-244.668960	805.697900	134.625750	-320.451500	783.797260	50.730230	-336.164700	819.525500	nan	nan	nan
47	1749651072.685000	149.387450	8.298785	866.997600	85.415620	6.029695	938.236400	222.806100	14.655024	879.142940	8.177661	-1.331001	960.465900	280.090600	17.105952	833.611670	-32.579930	-240.749170	977.529470	339.657900	-221.770470	799.344540	nan	nan	nan	-69.487200	-386.162700	990.342140	143.504960	-79.256840	846.932770	138.111800	-161.853240	815.022700	137.849020	-244.600520	805.669500	134.019060	-320.503230	784.235500	50.392890	-337.744470	822.260500	nan	nan	nan
48	1749651072.719000	149.682900	8.084536	871.087900	85.259250	3.418252	936.417100	222.793850	14.626697	879.182900	7.797071	-2.148539	959.792140	279.870960	17.343655	833.710250	-33.243146	-239.602600	978.206160	340.184750	-219.325100	799.864800	nan	nan	nan	-71.835600	-387.488250	991.078100	143.468450	-79.277510	846.743400	138.099150	-161.877130	814.985160	137.253140	-244.614590	805.608750	133.550510	-320.613650	784.546900	50.190352	-337.103200	820.589540	nan	nan	nan
49	1749651072.752000	149.828330	7.894233	871.422650	85.162910	1.717374	935.194300	222.816700	14.644533	879.246000	8.016001	-2.215460	960.451300	279.875670	17.032057	833.979200	-33.457268	-238.217320	978.293100	339.245050	-216.110450	800.880800	nan	nan	nan	-72.660945	-385.391380	991.695200	143.434060	-79.237940	846.505170	138.077000	-161.838920	814.892350	136.819750	-244.590910	805.614900	133.212000	-320.673580	784.828500	49.212404	-336.081740	822.541900	nan	nan	nan
50	1749651072.786000	150.157780	8.080542	874.923650	85.228875	3.251076	936.278050	222.838540	14.656827	879.332700	8.259492	-1.957864	960.944240	279.368670	17.115160	834.356840	-34.733582	-241.629300	978.349150	339.828550	-222.450930	798.608000	nan	nan	nan	-73.875606	-390.142830	993.609670	143.366950	-79.190746	846.073900	138.049500	-161.800520	814.740400	136.551590	-244.575260	805.604640	133.013430	-320.713340	784.972300	48.895508	-336.107940	822.784070	nan	nan	nan
51	1749651072.819000	150.048850	8.555651	872.276300	85.290544	4.421830	937.227960	222.844270	14.631540	879.356600	8.098428	-1.199469	962.052170	279.730900	17.389074	833.617200	-35.337135	-242.114540	978.964030	339.277600	-223.077610	798.223100	nan	nan	nan	-70.799700	-390.252300	990.167560	143.324690	-79.195010	845.850300	138.031150	-161.806480	814.637540	136.411470	-244.590640	805.562730	132.910820	-320.741120	784.945250	49.159810	-336.215820	821.458940	nan	nan	nan
52	1749651072.853000	149.843070	8.361533	870.693500	85.340686	5.181968	937.772330	222.857090	14.561355	879.368960	7.991150	-1.344577	961.701800	279.819040	17.166466	833.573940	-35.237778	-239.590940	979.062100	339.425830	-223.013940	798.039440	nan	nan	nan	-72.014410	-389.882270	991.610300	143.302220	-79.246900	845.738530	138.029140	-161.869240	814.645000	136.347980	-244.639320	805.498660	132.870610	-320.808170	784.920500	49.396884	-336.203630	820.365100	nan	nan	nan
53	1749651072.886000	150.065270	8.342713	873.701400	85.387215	5.754083	938.175300	222.868680	14.628485	879.372060	7.516459	-0.851959	963.454960	279.921320	16.661271	833.800400	-36.151435	-241.356730	978.919860	338.661730	-218.796610	799.468760	nan	nan	nan	-73.458650	-393.119780	990.829170	145.311740	-80.536600	854.337450	138.019620	-161.794600	814.607600	136.336220	-244.561080	805.467000	132.867300	-320.740160	784.911600	49.243666	-336.208640	821.127100	nan	nan	nan
54	1749651072.919000	149.374020	7.734761	870.569350	85.274220	3.395796	936.523700	222.522330	12.172744	877.733900	7.387674	-1.367837	964.441360	279.572930	15.988305	833.830500	-36.018690	-241.532280	979.581100	338.185040	-215.301780	800.452230	nan	nan	nan	-73.215120	-392.440080	991.040100	144.721760	-80.193410	851.409300	138.022470	-161.863950	814.624700	136.356440	-244.620580	805.437300	132.891520	-320.808920	784.899700	49.497213	-336.256200	820.457900	nan	nan	nan
55	1749651072.953000	149.650070	7.549494	873.816200	85.184770	1.787201	935.311300	222.603660	12.960896	878.210070	7.506640	-1.627043	962.782300	278.977220	15.808060	833.249000	-36.044747	-240.599480	980.159640	337.874500	-215.049680	800.797700	nan	nan	nan	-74.295030	-393.477380	989.372300	144.222690	-79.858930	849.089300	138.022210	-161.877410	814.623830	136.384770	-244.631540	805.435540	132.920800	-320.833920	784.934200	49.210995	-336.380240	820.855800	nan	nan	nan
56	1749651072.986000	149.147360	7.279158	869.365500	85.115980	0.899702	934.660900	222.312850	11.338636	876.969400	7.945696	-1.872987	961.584900	278.803300	15.563607	833.135660	-35.640478	-239.453240	978.080300	337.634920	-213.716570	800.665200	nan	nan	nan	-75.290670	-393.626270	999.887200	143.821500	-79.514040	847.406400	138.041780	-161.828620	814.759300	136.418130	-244.558870	805.445300	132.964770	-320.788060	785.020050	50.181497	-336.141300	820.646760	nan	nan	nan
57	1749651073.020000	148.926930	7.116422	867.528560	85.076400	0.374511	934.325700	222.144160	10.221720	876.327040	7.955917	-1.988381	960.744440	278.891650	15.378907	832.952860	-35.419863	-240.660430	978.956340	337.378320	-214.109810	800.614500	nan	nan	nan	-76.639270	-393.189100	998.072450	143.541050	-79.360425	846.368700	138.020840	-161.836950	814.589560	136.443300	-244.594960	805.451040	132.991480	-320.837500	785.054400	50.446868	-335.622070	820.245400	nan	nan	nan
58	1749651073.053000	148.442630	6.542459	866.262900	85.045405	0.222325	934.187500	222.031380	9.658799	875.997660	7.546344	-2.715334	960.382500	278.747650	14.928684	832.883950	-35.138663	-240.986870	979.662100	337.663500	-214.395520	800.673900	nan	nan	nan	-73.673910	-390.560800	993.411700	143.226790	-81.429390	844.885470	137.980200	-161.777780	814.299050	136.466100	-244.588760	805.467550	133.020060	-320.845200	785.101500	50.581420	-335.940600	820.022200	nan	nan	nan
59	1749651073.087000	148.420590	7.033348	865.299800	85.188076	2.752245	935.945700	222.334530	11.776626	877.465840	7.980473	-2.192721	960.481600	278.853630	15.446678	833.404900	-35.428617	-242.489490	979.443550	338.309620	-221.723320	798.304700	nan	nan	nan	-74.310530	-394.790650	998.133540	143.168080	-80.633000	844.979000	137.943070	-161.750330	814.074600	136.465530	-244.603070	805.463850	133.013490	-320.868850	785.120800	50.247630	-335.142940	820.078900	nan	nan	nan
60	1749651073.120000	148.415820	7.293463	864.954400	85.276770	4.524663	937.208300	222.575980	13.338953	878.622300	8.426627	-1.928404	961.001500	278.830950	15.736684	833.989500	-35.522520	-243.478950	979.287450	338.900100	-226.089750	797.140240	nan	nan	nan	-73.637960	-394.933820	995.001140	145.407230	-79.889010	844.024540	139.887020	-161.303680	811.415600	138.817980	-244.655360	805.625200	135.024490	-320.256900	783.315660	49.967073	-334.941740	820.061200	nan	nan	nan
